<svg width="19" height="19" viewBox="0 0 19 19" fill="white" xmlns="http://www.w3.org/2000/svg">
<path class="theme-svg" d="M9.96709 19C4.47044 19 0 14.529 0 9.03285C0 5.72938 1.63261 2.64782 4.3658 0.786781L5.52312 0L5.44874 1.39704C5.43866 1.58491 5.43361 1.78287 5.43361 1.98586C5.43361 8.37089 10.6277 13.5669 17.0131 13.5669C17.2161 13.5669 17.414 13.5619 17.6019 13.5518L19 13.4761L18.2121 14.6336C16.3525 17.3672 13.2701 19 9.96709 19ZM4.0708 2.79786C2.37011 4.40673 1.38677 6.65233 1.38677 9.03285C1.38677 13.7649 5.23568 17.6143 9.96709 17.6143C12.346 17.6143 14.5939 16.6296 16.2012 14.9299C9.6973 14.5264 4.47548 9.3052 4.07206 2.79912L4.0708 2.79786Z"/>
</svg>
