<svg width="111" height="111" viewBox="0 0 111 111" fill="none" xmlns="http://www.w3.org/2000/svg">
<path d="M56.4724 4.8067C56.6983 2.28418 58.4143 0.613938 60.7023 0.819858C62.6529 0.994318 63.814 2.35854 63.8826 3.94298L62.996 3.8629C62.916 2.91338 62.3297 1.7179 60.6251 1.56632C58.606 1.38614 57.5277 3.0192 57.3619 4.88678C57.196 6.75436 57.9767 8.54472 59.9845 8.7249C61.7491 8.8822 62.5928 7.73534 62.7901 6.58562L63.6767 6.6657C63.3135 8.47036 61.9007 9.64868 59.9158 9.47136C57.6507 9.2683 56.2464 7.34066 56.4724 4.8067Z" fill="#11131F"/>
<path d="M65.0181 5.64496C65.6845 3.21396 67.7122 1.88692 70.0545 2.52756C72.3826 3.16534 73.4522 5.34181 72.7858 7.77281C72.1195 10.2038 70.086 11.5423 67.758 10.9045C65.4185 10.2639 64.3517 8.07596 65.0181 5.64496ZM67.9553 10.1809C69.9459 10.7272 71.4016 9.44877 71.925 7.53829C72.4484 5.62781 71.8449 3.7974 69.8543 3.25114C67.8523 2.70202 66.3995 3.969 65.8761 5.87948C65.3527 7.78996 65.9533 9.6318 67.9553 10.1809Z" fill="#11131F"/>
<path d="M76.3465 4.67467L77.4076 5.20377L76.7012 12.9401L76.7212 12.9515L82.4927 7.74631L83.5537 8.27541L79.8071 15.7772L79.0406 15.3939L82.2496 8.97325L82.2295 8.96181L76.5467 14.1441L75.8546 13.7981L76.5953 6.14471L76.5753 6.13327L73.3693 12.554L72.6028 12.1707L76.3494 4.66895L76.3465 4.67467Z" fill="#11131F"/>
<path d="M85.6902 9.79199L86.3995 10.2696L81.7176 17.2251L81.0084 16.7475L85.6902 9.79199Z" fill="#11131F"/>
<path d="M88.4872 11.6533L89.2823 12.3283L88.0926 20.7367L88.1097 20.751L92.7572 15.2827L93.4093 15.8375L87.981 22.2267L87.1859 21.5518L88.3757 13.1434L88.3585 13.1291L83.711 18.5974L83.059 18.0426L88.4872 11.6533Z" fill="#11131F"/>
<path d="M91.9707 20.2589C93.8812 18.6687 96.2836 18.6401 97.8051 20.4705C99.0864 22.012 99.0092 23.5707 97.9796 24.8091L97.4162 24.1342C98.1969 23.1646 98.0883 21.9892 97.2245 20.9538C95.8832 19.3408 93.8812 19.8299 92.537 20.9481C91.1842 22.0721 90.2433 23.8024 91.6304 25.4698C92.6714 26.7225 94.3559 26.8941 95.7087 25.7701L93.9327 23.6337L94.519 23.1475L96.8442 25.9417L93.5351 28.693L93.1605 28.2411L94.1414 27.0914L94.1272 27.0742C93.0318 27.2973 91.9736 27.0514 91.0584 25.9503C89.4854 24.0569 90.0517 21.8605 91.9736 20.2646L91.9707 20.2589Z" fill="#11131F"/>
<path d="M97.665 29.9833L98.0739 30.7756C96.9728 31.4791 96.5581 32.5917 97.3618 34.1418C98.0739 35.5174 98.972 35.6461 99.7957 35.22C100.905 34.6594 100.694 33.79 100.245 32.0826C99.8958 30.7184 99.6612 29.3484 101.025 28.642C102.212 28.0271 103.434 28.5962 104.226 30.1263C105.061 31.7394 104.769 33.1865 103.371 34.056L102.962 33.2638C103.928 32.606 104.214 31.7308 103.562 30.4695C102.996 29.377 102.241 29.0138 101.469 29.4142C100.468 29.9319 100.719 30.9243 101.045 32.1426C101.506 33.8472 101.74 35.2171 100.23 35.9979C99.0235 36.6243 97.6335 36.2868 96.7154 34.5164C95.7888 32.7261 96.0462 30.9529 97.6678 29.9805L97.665 29.9833Z" fill="#11131F"/>
<path d="M102.461 36.2323C104.864 35.4629 107.083 36.4411 107.824 38.7519C108.559 41.0514 107.317 43.1363 104.918 43.9057C102.516 44.675 100.285 43.7026 99.5497 41.4003C98.809 39.0894 100.062 37.0016 102.464 36.2323H102.461ZM100.262 41.1715C100.891 43.1363 102.759 43.6597 104.643 43.0562C106.531 42.4528 107.735 40.9456 107.106 38.9807C106.474 37.0045 104.618 36.4782 102.73 37.0817C100.842 37.6852 99.6269 39.1952 100.259 41.1715H100.262Z" fill="#11131F"/>
<path d="M105.21 45.2442C107.712 44.9354 109.714 46.3082 110.009 48.7163C110.303 51.113 108.696 52.9319 106.196 53.2408C103.694 53.5497 101.68 52.1797 101.386 49.7802C101.088 47.3721 102.707 45.5531 105.21 45.2442ZM102.129 49.6887C102.381 51.7364 104.12 52.5973 106.085 52.3542C108.052 52.1111 109.517 50.8556 109.262 48.8078C109.008 46.7486 107.283 45.8849 105.315 46.128C103.348 46.3711 101.872 47.6266 102.127 49.6887H102.129Z" fill="#11131F"/>
<path d="M110.366 55.2283L110.312 56.2694L102.904 60.4192V60.4421L110.069 60.8225L110.023 61.6776L101.652 61.2315L101.706 60.1904L109.114 56.0406V56.0177L101.949 55.6344L101.995 54.7793L110.366 55.2255V55.2283Z" fill="#11131F"/>
<path d="M102.945 71.1012C103.585 71.3271 103.865 71.9392 103.64 72.5798C103.414 73.2204 102.81 73.5179 102.169 73.2891C101.529 73.0631 101.226 72.4454 101.452 71.8019C101.678 71.1612 102.304 70.8724 102.945 71.1012Z" fill="#11131F"/>
<path d="M98.5716 82.2611C100.622 83.7483 101.174 86.0792 99.8243 87.9382C98.6746 89.5227 96.9071 89.8201 95.5114 89.0679L96.0348 88.3472C96.8899 88.7648 98.217 88.8735 99.2237 87.4892C100.416 85.8476 99.5669 84.0858 98.0482 82.9819C96.5296 81.8808 94.5933 81.6319 93.4093 83.265C92.3683 84.6979 92.9202 86.0106 93.8068 86.7685L93.2835 87.4892C91.9192 86.2537 91.6332 84.4347 92.803 82.8217C94.1386 80.9799 96.5153 80.7654 98.5745 82.2583L98.5716 82.2611Z" fill="#11131F"/>
<path d="M93.4751 89.1621C95.2225 90.9782 95.3255 93.4006 93.578 95.0851C91.8363 96.7611 89.4196 96.5637 87.6721 94.7476C85.9247 92.9315 85.8131 90.5005 87.5549 88.8246C89.3023 87.1429 91.7305 87.346 93.4779 89.1621H93.4751ZM88.0725 89.3651C86.5853 90.7951 86.94 92.7027 88.3128 94.1299C89.6856 95.557 91.5703 95.9746 93.0575 94.5446C94.5533 93.106 94.2072 91.2069 92.8344 89.7798C91.4616 88.3527 89.5683 87.9265 88.0754 89.3651H88.0725Z" fill="#11131F"/>
<path d="M88.5273 99.384L87.532 100.025L81.2371 95.4773L81.2171 95.4887L82.753 103.105L81.7577 103.746L77.2131 96.7013L77.9339 96.238L81.8235 102.27L81.8435 102.258L80.2791 94.7279L80.9283 94.3075L87.1316 98.8463L87.1516 98.8349L83.262 92.8032L83.9828 92.3398L88.5244 99.384H88.5273Z" fill="#11131F"/>
<path d="M79.3581 104.818L78.5859 105.184L74.988 97.6112L75.7602 97.2451L79.3581 104.818Z" fill="#11131F"/>
<path d="M76.3208 106.279L75.3341 106.617L68.7161 101.3L68.6932 101.309L71.0184 108.098L70.209 108.376L67.492 100.445L68.4787 100.108L75.0967 105.424L75.1196 105.416L72.7944 98.6261L73.6038 98.3486L76.3208 106.279Z" fill="#11131F"/>
<path d="M67.1402 104.875C67.5263 107.332 66.3194 109.408 63.9656 109.777C61.9836 110.089 60.6852 109.223 60.1504 107.704L61.0198 107.567C61.4517 108.734 62.5185 109.243 63.8484 109.034C65.9218 108.708 66.5282 106.737 66.2565 105.013C65.9848 103.274 64.9838 101.581 62.8388 101.915C61.2286 102.167 60.219 103.525 60.4907 105.261L63.2363 104.832L63.3536 105.585L59.7614 106.148L59.095 101.895L59.6756 101.804L60.1618 103.234H60.1847C60.5536 102.176 61.3087 101.392 62.7244 101.172C65.1582 100.791 66.7512 102.404 67.1374 104.873L67.1402 104.875Z" fill="#11131F"/>
<path d="M55.8775 104.776L54.9881 104.724C54.948 103.417 54.2016 102.493 52.4598 102.39C50.9154 102.299 50.3463 103.005 50.2919 103.932C50.209 105.173 51.0613 105.433 52.7601 105.92C54.11 106.317 55.4085 106.815 55.3198 108.348C55.2426 109.683 54.1272 110.438 52.4083 110.338C50.5951 110.232 49.4997 109.24 49.4683 107.596L50.3577 107.647C50.4292 108.814 51.0355 109.506 52.4512 109.589C53.681 109.66 54.376 109.197 54.4275 108.331C54.4933 107.207 53.5123 106.915 52.2997 106.575C50.6008 106.1 49.3024 105.599 49.4025 103.903C49.4826 102.545 50.4807 101.524 52.4713 101.641C54.4847 101.758 55.8747 102.885 55.8804 104.776H55.8775Z" fill="#11131F"/>
<path d="M48.0526 105.705C47.4863 108.161 45.5157 109.574 43.1477 109.031C40.7939 108.49 39.6356 106.359 40.199 103.9C40.7653 101.443 42.7387 100.019 45.0953 100.559C47.4605 101.103 48.616 103.245 48.0526 105.705ZM44.9266 101.292C42.916 100.828 41.5117 102.167 41.0684 104.1C40.6251 106.031 41.3058 107.835 43.3164 108.299C45.3384 108.765 46.7398 107.438 47.1831 105.504C47.6264 103.574 46.9486 101.758 44.9266 101.292Z" fill="#11131F"/>
<path d="M38.8949 103.469C37.8824 105.777 35.6802 106.798 33.458 105.822C31.2444 104.853 30.5036 102.542 31.5161 100.234C32.5285 97.9259 34.7336 96.8935 36.9472 97.8659C39.1694 98.8411 39.9073 101.161 38.8949 103.471V103.469ZM36.6469 98.5523C34.7564 97.7229 33.1291 98.7782 32.334 100.591C31.5389 102.408 31.8707 104.307 33.7612 105.136C35.6631 105.968 37.2847 104.927 38.0798 103.111C38.8748 101.295 38.5488 99.3845 36.6469 98.5523Z" fill="#11131F"/>
<path d="M27.6722 102.793L26.8056 102.213L27.0401 93.7272L27.0201 93.7129L23.019 99.6674L22.3097 99.1898L26.9829 92.2314L27.8495 92.812L27.615 101.298L27.635 101.312L31.6362 95.3546L32.3454 95.8322L27.6722 102.791V102.793Z" fill="#11131F"/>
<path d="M17.8424 88.2901C17.319 88.7248 16.6526 88.6562 16.2179 88.1328C15.7832 87.6094 15.8375 86.9402 16.358 86.5055C16.8814 86.0707 17.5678 86.1251 18.0025 86.6485C18.4373 87.1718 18.3658 87.8554 17.8424 88.2901Z" fill="#11131F"/>
<path d="M10.4779 78.8465C8.1527 79.8504 5.8647 79.1382 4.95522 77.0275C4.18016 75.2286 4.82366 73.5584 6.18216 72.7433L6.5368 73.5612C5.74172 74.0846 4.96952 75.1685 5.6502 76.7415C6.45386 78.6034 8.40438 78.7721 10.1261 78.0285C11.8478 77.2849 13.049 75.7462 12.2482 73.893C11.5475 72.2685 10.1347 72.0711 9.03072 72.4458L8.67608 71.6279C10.435 71.0873 12.1453 71.7651 12.9346 73.5955C13.8355 75.6833 12.8116 77.8369 10.475 78.8465H10.4779Z" fill="#11131F"/>
<path d="M7.14313 70.9294C4.68639 71.5014 2.55283 70.3488 2.00371 67.9836C1.45459 65.6298 2.86171 63.6536 5.31845 63.0844C7.77519 62.5124 9.92019 63.6622 10.4664 66.0159C11.0156 68.3812 9.59987 70.3603 7.14313 70.9294ZM9.73429 66.1847C9.26525 64.1741 7.44915 63.502 5.51865 63.951C3.58815 64.4 2.26683 65.8043 2.73301 67.812C3.20205 69.834 5.00957 70.509 6.94007 70.06C8.87057 69.611 10.2033 68.2038 9.73429 66.1847Z" fill="#11131F"/>
<path d="M0.899743 61.4375L0.859703 60.2534L7.99254 57.1818V57.1589L0.665223 54.5706L0.625183 53.3866L9.00212 53.1006L9.03072 53.9557L1.8607 54.2017V54.2246L9.12796 56.7442L9.1537 57.5164L2.07806 60.5166V60.5394L9.25094 60.2935L9.27954 61.1486L0.902602 61.4346L0.899743 61.4375Z" fill="#11131F"/>
<path d="M0.925476 50.7986L1.00556 49.9463L9.35104 50.7242L9.27096 51.5765L0.925476 50.7986Z" fill="#11131F"/>
<path d="M1.21719 47.4435L1.42883 46.4225L9.37963 43.4424L9.38535 43.4195L2.35833 41.9552L2.53279 41.1172L10.7439 42.8275L10.5322 43.8485L2.57855 46.8286L2.57283 46.8515L9.59985 48.3158L9.42539 49.1538L1.21719 47.4435Z" fill="#11131F"/>
<path d="M7.10881 40.2706C4.80079 39.3497 3.63105 37.2533 4.51479 35.0426C5.25839 33.1807 6.66551 32.5057 8.24423 32.8203L7.91819 33.6354C6.69411 33.4124 5.71313 34.0673 5.21263 35.32C4.43471 37.2676 5.81895 38.7949 7.44057 39.4441C9.07363 40.0962 11.0413 40.099 11.8478 38.0856C12.4541 36.5727 11.8021 35.0111 10.169 34.359L9.13655 36.9387L8.43013 36.6556L9.78005 33.2808L13.7755 34.8767L13.5581 35.4201L12.0795 35.1083L12.0709 35.1312C12.7888 35.9864 13.0776 37.036 12.5457 38.363C11.6333 40.651 9.43113 41.1973 7.11167 40.2706H7.10881Z" fill="#11131F"/>
<path d="M12.9461 30.6356L13.4466 29.8977C14.5906 30.5326 15.766 30.3667 16.747 28.9196C17.6164 27.6383 17.3018 26.786 16.5354 26.2655C15.5143 25.5562 14.8508 26.1568 13.5638 27.3637C12.5314 28.3218 11.436 29.1798 10.1661 28.3161C9.05931 27.5639 8.9821 26.2197 9.94878 24.7954C10.9698 23.2911 12.3826 22.8621 13.8126 23.6772L13.3121 24.4151C12.274 23.8802 11.3673 24.0432 10.5694 25.2187C9.87728 26.2369 9.92018 27.0749 10.638 27.5611C11.5704 28.1931 12.3226 27.501 13.2378 26.6344C14.5162 25.4189 15.6116 24.5609 17.0187 25.5162C18.1427 26.2798 18.5088 27.664 17.3876 29.3114C16.2551 30.9787 14.5734 31.5965 12.9461 30.6327V30.6356Z" fill="#11131F"/>
<path d="M16.1635 23.4393C14.3417 21.6947 14.1415 19.278 15.8175 17.5248C17.4877 15.7802 19.913 15.8775 21.732 17.6192C23.5538 19.3638 23.7626 21.7891 22.0923 23.5337C20.4135 25.2869 17.9825 25.1839 16.1607 23.4393H16.1635ZM21.5518 23.0132C22.9789 21.5231 22.5471 19.6327 21.1171 18.2627C19.6842 16.8928 17.788 16.5524 16.3609 18.0425C14.9252 19.5411 15.3484 21.423 16.7784 22.793C18.2113 24.1629 20.1161 24.5118 21.5518 23.0132Z" fill="#11131F"/>
<path d="M22.7616 16.7243C21.2915 14.6766 21.5375 12.2627 23.508 10.847C25.47 9.43992 27.8352 9.97759 29.3053 12.0254C30.7753 14.0731 30.5379 16.4955 28.576 17.9055C26.6054 19.3212 24.2316 18.7721 22.7616 16.7243ZM28.1384 17.2963C29.8143 16.0923 29.7371 14.1561 28.5817 12.5459C27.4262 10.9357 25.6216 10.2522 23.9456 11.4562C22.2582 12.666 22.3297 14.5936 23.4852 16.2038C24.6406 17.814 26.451 18.5061 28.1384 17.2963Z" fill="#11131F"/>
<path d="M29.0764 7.40597L30.0174 6.95695L37.196 11.4872L37.216 11.4757L34.1329 4.99785L34.9051 4.62891L38.5059 12.1993L37.5649 12.6483L30.3863 8.11811L30.3663 8.12955L33.4494 14.6074L32.6772 14.9764L29.0764 7.40597Z" fill="#11131F"/>
<path d="M46.5711 6.36507C46.4652 5.69297 46.8685 5.15529 47.5406 5.04947C48.2127 4.94365 48.759 5.33261 48.8648 6.00471C48.9706 6.67681 48.5702 7.23737 47.8981 7.34319C47.226 7.44901 46.674 7.03717 46.5682 6.36507H46.5711Z" fill="#11131F"/>
</svg>
