<svg width="111" height="111" viewBox="0 0 111 111" fill="none" xmlns="http://www.w3.org/2000/svg">
<path d="M56.4724 4.80645C56.6984 2.28393 58.4144 0.613694 60.7024 0.819614C62.6529 0.994074 63.814 2.35829 63.8827 3.94273L62.9961 3.86265C62.916 2.91313 62.3297 1.71765 60.6251 1.56607C58.606 1.38589 57.5278 3.01895 57.3619 4.88653C57.196 6.75411 57.9768 8.54447 59.9845 8.72465C61.7491 8.88195 62.5928 7.73509 62.7902 6.58537L63.6768 6.66545C63.3135 8.47011 61.9007 9.64843 59.9159 9.47111C57.6507 9.26805 56.2465 7.34041 56.4724 4.80645Z" fill="white"/>
<path d="M65.0181 5.64448C65.6845 3.21348 67.7122 1.88644 70.0545 2.52708C72.3826 3.16486 73.4522 5.34132 72.7858 7.77232C72.1195 10.2033 70.086 11.5418 67.758 10.904C65.4185 10.2634 64.3517 8.07548 65.0181 5.64448ZM67.9553 10.1804C69.9459 10.7267 71.4016 9.44828 71.925 7.5378C72.4484 5.62732 71.8449 3.79692 69.8543 3.25066C67.8523 2.70154 66.3995 3.96852 65.8761 5.879C65.3527 7.78948 65.9533 9.63132 67.9553 10.1804Z" fill="white"/>
<path d="M76.3465 4.67491L77.4076 5.20401L76.7012 12.9403L76.7212 12.9518L82.4927 7.74655L83.5537 8.27565L79.8071 15.7774L79.0406 15.3942L82.2496 8.97349L82.2295 8.96205L76.5467 14.1444L75.8546 13.7983L76.5953 6.14495L76.5753 6.13351L73.3693 12.5542L72.6028 12.171L76.3494 4.66919L76.3465 4.67491Z" fill="white"/>
<path d="M85.6902 9.7915L86.3995 10.2691L81.7176 17.2246L81.0084 16.747L85.6902 9.7915Z" fill="white"/>
<path d="M88.4872 11.6533L89.2823 12.3283L88.0926 20.7367L88.1097 20.751L92.7572 15.2827L93.4093 15.8375L87.981 22.2267L87.1859 21.5518L88.3757 13.1434L88.3585 13.1291L83.711 18.5974L83.059 18.0426L88.4872 11.6533Z" fill="white"/>
<path d="M91.9707 20.2591C93.8812 18.6689 96.2836 18.6403 97.8051 20.4707C99.0864 22.0123 99.0092 23.571 97.9796 24.8094L97.4162 24.1344C98.1969 23.1649 98.0883 21.9894 97.2245 20.9541C95.8832 19.3411 93.8812 19.8301 92.537 20.9484C91.1842 22.0723 90.2433 23.8026 91.6304 25.47C92.6714 26.7227 94.356 26.8943 95.7087 25.7703L93.9327 23.6339L94.519 23.1477L96.8442 25.9419L93.5351 28.6932L93.1605 28.2414L94.1414 27.0916L94.1272 27.0745C93.0318 27.2976 91.9736 27.0516 91.0584 25.9505C89.4854 24.0572 90.0517 21.8607 91.9736 20.2648L91.9707 20.2591Z" fill="white"/>
<path d="M97.665 29.9831L98.0739 30.7753C96.9728 31.4789 96.5581 32.5914 97.3618 34.1415C98.0739 35.5172 98.972 35.6459 99.7957 35.2197C100.905 34.6592 100.694 33.7897 100.245 32.0823C99.8958 30.7181 99.6612 29.3482 101.025 28.6417C102.212 28.0268 103.434 28.596 104.226 30.1261C105.061 31.7391 104.769 33.1863 103.371 34.0557L102.962 33.2635C103.928 32.6057 104.214 31.7305 103.562 30.4693C102.996 29.3768 102.241 29.0135 101.469 29.4139C100.468 29.9316 100.719 30.924 101.045 32.1424C101.506 33.8469 101.74 35.2169 100.23 35.9977C99.0235 36.624 97.6335 36.2865 96.7154 34.5162C95.7888 32.7258 96.0462 30.9526 97.6678 29.9802L97.665 29.9831Z" fill="white"/>
<path d="M102.461 36.232C104.864 35.4627 107.083 36.4408 107.824 38.7517C108.559 41.0511 107.317 43.1361 104.918 43.9054C102.516 44.6747 100.285 43.7023 99.5497 41.4C98.809 39.0892 100.062 37.0014 102.464 36.232H102.461ZM100.262 41.1712C100.891 43.1361 102.759 43.6594 104.643 43.056C106.531 42.4525 107.735 40.9453 107.106 38.9805C106.474 37.0042 104.618 36.478 102.73 37.0814C100.842 37.6849 99.6269 39.195 100.259 41.1712H100.262Z" fill="white"/>
<path d="M105.21 45.244C107.712 44.9351 109.714 46.3079 110.009 48.716C110.303 51.1127 108.696 52.9317 106.196 53.2406C103.694 53.5494 101.68 52.1795 101.386 49.78C101.088 47.3718 102.707 45.5529 105.21 45.244ZM102.129 49.6884C102.381 51.7362 104.12 52.5971 106.085 52.354C108.052 52.1109 109.517 50.8553 109.262 48.8076C109.008 46.7484 107.283 45.8846 105.315 46.1277C103.348 46.3708 101.872 47.6264 102.127 49.6884H102.129Z" fill="white"/>
<path d="M110.366 55.2283L110.312 56.2694L102.905 60.4192V60.4421L110.069 60.8225L110.023 61.6776L101.652 61.2315L101.706 60.1904L109.114 56.0406V56.0177L101.949 55.6344L101.995 54.7793L110.366 55.2255V55.2283Z" fill="white"/>
<path d="M102.945 71.1012C103.585 71.3271 103.865 71.9392 103.64 72.5798C103.414 73.2204 102.81 73.5179 102.169 73.2891C101.529 73.0631 101.226 72.4454 101.452 71.8019C101.678 71.1612 102.304 70.8724 102.945 71.1012Z" fill="white"/>
<path d="M98.5716 82.2609C100.622 83.7481 101.174 86.079 99.8243 87.938C98.6746 89.5224 96.9071 89.8199 95.5114 89.0677L96.0348 88.347C96.8899 88.7645 98.217 88.8732 99.2237 87.489C100.416 85.8473 99.5669 84.0856 98.0482 82.9816C96.5296 81.8805 94.5933 81.6317 93.4093 83.2648C92.3683 84.6976 92.9202 86.0104 93.8068 86.7683L93.2835 87.489C91.9192 86.2535 91.6332 84.4345 92.803 82.8215C94.1386 80.9796 96.5153 80.7651 98.5745 82.258L98.5716 82.2609Z" fill="white"/>
<path d="M93.4751 89.1621C95.2225 90.9782 95.3255 93.4006 93.578 95.0851C91.8363 96.7611 89.4196 96.5637 87.6721 94.7476C85.9247 92.9315 85.8131 90.5005 87.5549 88.8246C89.3023 87.1429 91.7305 87.346 93.4779 89.1621H93.4751ZM88.0725 89.3651C86.5853 90.7951 86.94 92.7027 88.3128 94.1299C89.6856 95.557 91.5703 95.9746 93.0575 94.5446C94.5533 93.106 94.2072 91.2069 92.8344 89.7798C91.4616 88.3527 89.5683 87.9265 88.0754 89.3651H88.0725Z" fill="white"/>
<path d="M88.5273 99.3838L87.532 100.024L81.2371 95.477L81.2171 95.4885L82.753 103.105L81.7577 103.745L77.2131 96.7011L77.9339 96.2378L81.8235 102.27L81.8435 102.258L80.2791 94.7277L80.9283 94.3073L87.1316 98.8461L87.1516 98.8347L83.262 92.8029L83.9828 92.3396L88.5244 99.3838H88.5273Z" fill="white"/>
<path d="M79.3581 104.818L78.5859 105.184L74.988 97.6107L75.7602 97.2446L79.3581 104.818Z" fill="white"/>
<path d="M76.3208 106.279L75.3341 106.617L68.7161 101.3L68.6932 101.308L71.0184 108.098L70.209 108.376L67.492 100.445L68.4787 100.107L75.0967 105.424L75.1196 105.415L72.7944 98.6258L73.6038 98.3484L76.3208 106.279Z" fill="white"/>
<path d="M67.1402 104.875C67.5263 107.332 66.3194 109.408 63.9656 109.777C61.9836 110.089 60.6852 109.222 60.1504 107.703L61.0198 107.566C61.4517 108.733 62.5185 109.242 63.8484 109.033C65.9219 108.707 66.5282 106.737 66.2565 105.012C65.9848 103.273 64.9838 101.58 62.8388 101.915C61.2286 102.166 60.219 103.525 60.4907 105.261L63.2363 104.832L63.3536 105.584L59.7614 106.148L59.095 101.895L59.6756 101.803L60.1618 103.233H60.1847C60.5536 102.175 61.3087 101.391 62.7244 101.171C65.1582 100.791 66.7513 102.404 67.1374 104.872L67.1402 104.875Z" fill="white"/>
<path d="M55.8775 104.775L54.9881 104.723C54.948 103.416 54.2016 102.493 52.4598 102.39C50.9154 102.298 50.3463 103.004 50.2919 103.931C50.209 105.172 51.0613 105.433 52.7601 105.919C54.11 106.316 55.4085 106.814 55.3198 108.347C55.2426 109.683 54.1272 110.438 52.4083 110.338C50.5951 110.232 49.4997 109.239 49.4683 107.595L50.3577 107.646C50.4292 108.813 51.0355 109.505 52.4512 109.588C53.681 109.66 54.376 109.196 54.4275 108.33C54.4933 107.206 53.5123 106.914 52.2997 106.574C50.6008 106.099 49.3024 105.599 49.4025 103.903C49.4826 102.544 50.4807 101.523 52.4713 101.64C54.4847 101.758 55.8747 102.884 55.8804 104.775H55.8775Z" fill="white"/>
<path d="M48.0526 105.704C47.4863 108.161 45.5157 109.574 43.1477 109.03C40.7939 108.49 39.6356 106.359 40.199 103.9C40.7653 101.443 42.7387 100.019 45.0953 100.559C47.4605 101.103 48.616 103.245 48.0526 105.704ZM44.9266 101.291C42.916 100.828 41.5117 102.166 41.0684 104.1C40.6251 106.03 41.3058 107.835 43.3164 108.298C45.3384 108.764 46.7398 107.437 47.1831 105.504C47.6264 103.574 46.9486 101.757 44.9266 101.291Z" fill="white"/>
<path d="M38.8949 103.468C37.8824 105.776 35.6802 106.797 33.458 105.822C31.2444 104.852 30.5036 102.541 31.5161 100.233C32.5285 97.9252 34.7336 96.8927 36.9472 97.8651C39.1694 98.8404 39.9073 101.16 38.8949 103.471V103.468ZM36.6469 98.5515C34.7564 97.7221 33.1291 98.7775 32.334 100.591C31.5389 102.407 31.8707 104.306 33.7612 105.135C35.6631 105.968 37.2847 104.926 38.0798 103.11C38.8748 101.294 38.5488 99.3838 36.6469 98.5515Z" fill="white"/>
<path d="M27.6722 102.793L26.8056 102.212L27.0401 93.7267L27.0201 93.7124L23.019 99.667L22.3097 99.1893L26.9829 92.231L27.8495 92.8115L27.615 101.297L27.635 101.311L31.6362 95.3541L32.3454 95.8317L27.6722 102.79V102.793Z" fill="white"/>
<path d="M17.8424 88.2899C17.319 88.7246 16.6526 88.6559 16.2179 88.1326C15.7832 87.6092 15.8375 86.9399 16.358 86.5052C16.8814 86.0705 17.5678 86.1248 18.0025 86.6482C18.4373 87.1716 18.3658 87.8551 17.8424 88.2899Z" fill="white"/>
<path d="M10.4779 78.8462C8.1527 79.8501 5.8647 79.138 4.95522 77.0273C4.18016 75.2283 4.82366 73.5581 6.18216 72.743L6.5368 73.561C5.74172 74.0843 4.96952 75.1683 5.6502 76.7413C6.45386 78.6031 8.40438 78.7719 10.1261 78.0283C11.8478 77.2847 13.049 75.746 12.2482 73.8927C11.5475 72.2682 10.1347 72.0709 9.03072 72.4456L8.67608 71.6276C10.435 71.0871 12.1453 71.7649 12.9346 73.5953C13.8355 75.6831 12.8116 77.8367 10.475 78.8462H10.4779Z" fill="white"/>
<path d="M7.14313 70.9297C4.68639 71.5017 2.55283 70.3491 2.00371 67.9839C1.45459 65.6301 2.86171 63.6538 5.31845 63.0847C7.77519 62.5127 9.92019 63.6624 10.4664 66.0162C11.0156 68.3814 9.59987 70.3605 7.14313 70.9297ZM9.73429 66.1849C9.26525 64.1743 7.44915 63.5022 5.51865 63.9513C3.58815 64.4003 2.26683 65.8045 2.73301 67.8123C3.20205 69.8343 5.00957 70.5093 6.94007 70.0602C8.87057 69.6112 10.2033 68.2041 9.73429 66.1849Z" fill="white"/>
<path d="M0.899743 61.4372L0.859703 60.2532L7.99254 57.1816V57.1587L0.665223 54.5704L0.625183 53.3863L9.00212 53.1003L9.03072 53.9555L1.8607 54.2014V54.2243L9.12796 56.744L9.1537 57.5162L2.07806 60.5163V60.5392L9.25094 60.2932L9.27954 61.1484L0.902602 61.4344L0.899743 61.4372Z" fill="white"/>
<path d="M0.925476 50.7981L1.00556 49.9458L9.35104 50.7237L9.27096 51.576L0.925476 50.7981Z" fill="white"/>
<path d="M1.21719 47.4433L1.42883 46.4222L9.37963 43.4421L9.38535 43.4192L2.35833 41.9549L2.53279 41.1169L10.7439 42.8272L10.5322 43.8482L2.57855 46.8284L2.57283 46.8512L9.59985 48.3156L9.42539 49.1535L1.21719 47.4433Z" fill="white"/>
<path d="M7.10881 40.2704C4.80079 39.3495 3.63105 37.2531 4.51479 35.0423C5.25839 33.1804 6.66551 32.5055 8.24423 32.8201L7.91819 33.6352C6.69411 33.4121 5.71313 34.067 5.21263 35.3197C4.43471 37.2674 5.81895 38.7946 7.44057 39.4438C9.07363 40.0959 11.0413 40.0988 11.8478 38.0853C12.4541 36.5724 11.8021 35.0108 10.169 34.3588L9.13655 36.9385L8.43013 36.6553L9.78005 33.2805L13.7755 34.8764L13.5581 35.4198L12.0795 35.1081L12.0709 35.131C12.7888 35.9861 13.0776 37.0357 12.5457 38.3628C11.6333 40.6508 9.43113 41.197 7.11167 40.2704H7.10881Z" fill="white"/>
<path d="M12.9461 30.6351L13.4466 29.8972C14.5906 30.5321 15.766 30.3662 16.747 28.9191C17.6164 27.6378 17.3018 26.7855 16.5354 26.265C15.5143 25.5557 14.8508 26.1563 13.5638 27.3632C12.5314 28.3213 11.436 29.1793 10.1661 28.3156C9.05931 27.5634 8.9821 26.2192 9.94878 24.7949C10.9698 23.2906 12.3826 22.8616 13.8126 23.6767L13.3121 24.4146C12.274 23.8797 11.3673 24.0428 10.5694 25.2182C9.87728 26.2364 9.92018 27.0744 10.638 27.5606C11.5704 28.1926 12.3226 27.5005 13.2378 26.6339C14.5162 25.4184 15.6116 24.5604 17.0187 25.5157C18.1427 26.2793 18.5088 27.6635 17.3876 29.3109C16.2551 30.9783 14.5734 31.596 12.9461 30.6322V30.6351Z" fill="white"/>
<path d="M16.1636 23.4393C14.3418 21.6947 14.1416 19.278 15.8175 17.5248C17.4878 15.7802 19.913 15.8775 21.732 17.6192C23.5538 19.3638 23.7626 21.7891 22.0924 23.5337C20.4135 25.2869 17.9825 25.1839 16.1607 23.4393H16.1636ZM21.5518 23.0132C22.979 21.5231 22.5471 19.6327 21.1171 18.2627C19.6842 16.8928 17.7881 16.5524 16.3609 18.0425C14.9252 19.5411 15.3485 21.423 16.7785 22.793C18.2113 24.1629 20.1161 24.5118 21.5518 23.0132Z" fill="white"/>
<path d="M22.7616 16.7241C21.2915 14.6763 21.5375 12.2625 23.508 10.8468C25.47 9.43967 27.8352 9.97735 29.3053 12.0251C30.7753 14.0729 30.5379 16.4953 28.576 17.9053C26.6054 19.321 24.2316 18.7718 22.7616 16.7241ZM28.1384 17.2961C29.8143 16.092 29.7371 14.1558 28.5817 12.5456C27.4262 10.9354 25.6216 10.2519 23.9456 11.456C22.2582 12.6658 22.3297 14.5934 23.4852 16.2036C24.6406 17.8137 26.451 18.5059 28.1384 17.2961Z" fill="white"/>
<path d="M29.0765 7.40621L30.0174 6.95719L37.196 11.4874L37.216 11.476L34.133 4.99809L34.9052 4.62915L38.5059 12.1996L37.565 12.6486L30.3864 8.11835L30.3663 8.12979L33.4494 14.6077L32.6772 14.9766L29.0765 7.40621Z" fill="white"/>
<path d="M46.5711 6.36507C46.4653 5.69297 46.8685 5.15529 47.5406 5.04947C48.2127 4.94365 48.759 5.33261 48.8648 6.00471C48.9706 6.67681 48.5702 7.23737 47.8981 7.34319C47.226 7.44901 46.6741 7.03717 46.5682 6.36507H46.5711Z" fill="white"/>
</svg>
