<svg width="143" height="143" viewBox="0 0 143 143" fill="none" xmlns="http://www.w3.org/2000/svg">
<g clip-path="url(#clip0_426_652)">
<path d="M71.5 143C110.988 143 143 110.988 143 71.5C143 32.0116 110.988 0 71.5 0C32.0116 0 0 32.0116 0 71.5C0 110.988 32.0116 143 71.5 143Z" fill="#F4F4F4"/>
<path d="M71.5 135.261C54.4687 135.261 38.4556 128.629 26.415 116.585C14.3744 104.542 7.73917 88.5314 7.73917 71.5001C7.73917 54.4688 14.3715 38.4557 26.415 26.4151C38.4584 14.3745 54.4687 7.73926 71.5 7.73926C88.5313 7.73926 104.544 14.3716 116.585 26.4151C128.626 38.4585 135.261 54.4688 135.261 71.5001C135.261 88.5314 128.629 104.545 116.585 116.585C104.542 128.626 88.5313 135.261 71.5 135.261ZM71.5 8.3084C54.6203 8.3084 38.753 14.8807 26.8182 26.8155C14.8834 38.7502 8.31117 54.6204 8.31117 71.5001C8.31117 88.3798 14.8834 104.247 26.8182 116.182C38.753 128.117 54.6203 134.689 71.5 134.689C88.3797 134.689 104.247 128.117 116.182 116.182C128.117 104.247 134.689 88.3798 134.689 71.5001C134.689 54.6204 128.117 38.7531 116.182 26.8183C104.247 14.8835 88.3797 8.31126 71.5 8.31126V8.3084Z" fill="#11131F"/>
<path d="M71.5 110.582C49.9499 110.582 32.4153 93.05 32.4153 71.4999C32.4153 49.9498 49.9499 32.418 71.5 32.418C93.0501 32.418 110.582 49.9498 110.582 71.5027C110.582 93.0557 93.0501 110.585 71.5 110.585V110.582ZM71.5 32.9871C50.2645 32.9871 32.9873 50.2644 32.9873 71.4999C32.9873 92.7354 50.2645 110.01 71.5 110.01C92.7355 110.01 110.01 92.7325 110.01 71.4999C110.01 50.2672 92.7327 32.9871 71.5 32.9871Z" fill="#11131F"/>
<path d="M62.0047 90.0072C65.1414 89.965 67.65 87.3881 67.6078 84.2514C67.5656 81.1147 64.9887 78.6061 61.852 78.6483C58.7154 78.6904 56.2068 81.2674 56.2489 84.4041C56.2911 87.5407 58.868 90.0493 62.0047 90.0072Z" fill="#11131F"/>
<path d="M86.7495 59.5049H56.2505L71.5 74.906L86.7495 59.5049Z" fill="#11131F"/>
<path d="M61.2155 69.5148L74.6489 83.014L76.0074 81.6584L62.5711 68.1592L61.2155 69.5148Z" fill="#11131F"/>
</g>
<defs>
<clipPath id="clip0_426_652">
<rect width="143" height="143" fill="white"/>
</clipPath>
</defs>
</svg>
