<?xml version="1.0" encoding="UTF-8"?><svg id="Layer_1" xmlns="http://www.w3.org/2000/svg" viewBox="0 0 1000 194.99"><defs><style>.cls-1{fill:#dff61c;}</style></defs><path class="cls-1" d="M0,12.72V91.76H91.76V0H12.72C5.69,0,0,5.69,0,12.72Z"/><path class="cls-1" d="M149.11,0h-45.88V91.76h45.88c25.34,0,45.88-20.54,45.88-45.88S174.45,0,149.11,0Z"/><path class="cls-1" d="M0,149.11c0,25.34,20.54,45.88,45.88,45.88s45.88-20.54,45.88-45.88v-45.88H0v45.88Z"/><g><path class="cls-1" d="M342.73,50.17c-3.92-3.16-8.47-5.52-13.67-7.1-5.2-1.58-10.78-2.37-16.74-2.37h-62.58v113.59h20.16v-38.04h42.42c5.96,0,11.54-.7,16.74-2.1,5.2-1.4,9.75-3.62,13.67-6.66,3.92-3.04,6.98-6.92,9.2-11.66,2.22-4.73,3.33-10.31,3.33-16.74s-1.11-12.21-3.33-17c-2.22-4.79-5.29-8.77-9.2-11.92Zm-13.58,43.91c-3.86,3.68-9,5.52-15.43,5.52h-43.82V58.41h43.82c6.43,0,11.57,1.81,15.43,5.43,3.86,3.62,5.78,8.71,5.78,15.25s-1.93,11.31-5.78,14.99Z"/><polygon class="cls-1" points="385.39 40.7 365.23 40.7 365.23 154.29 456.74 154.29 456.74 136.94 385.39 136.94 385.39 40.7"/><path class="cls-1" d="M511.5,40.7l-49.96,113.59h21.74l11.22-26.47h55.87l11.27,26.47h22.09l-50.48-113.59h-21.74Zm-9.64,69.77l20.52-48.41,20.6,48.41h-41.12Z"/><polygon class="cls-1" points="690.64 126.46 611.06 40.7 590.9 40.7 590.9 154.29 611.06 154.29 611.06 68.85 690.64 154.29 710.98 154.29 710.98 40.7 690.64 40.7 690.64 126.46"/><rect class="cls-1" x="727.63" y="40.7" width="20.33" height="113.59"/><polygon class="cls-1" points="850.51 90.83 784.6 90.83 784.6 58.06 865.06 58.06 865.06 40.7 764.44 40.7 764.44 154.29 784.6 154.29 784.6 107.49 850.51 107.49 850.51 90.83"/><path class="cls-1" d="M900.26,40.7l-49.96,113.59h21.74l11.22-26.47h55.87l11.27,26.47h22.09l-50.48-113.59h-21.74Zm-9.64,69.77l20.52-48.41,20.6,48.41h-41.12Z"/><rect class="cls-1" x="979.67" y="40.7" width="20.33" height="113.59"/></g></svg>