<?xml version="1.0" encoding="UTF-8"?><svg id="Layer_1" xmlns="http://www.w3.org/2000/svg" viewBox="0 0 800 145.92"><defs><style>.cls-1{fill:#f8f8f8;}</style></defs><g><g><path class="cls-1" d="M149.53,86.85V35.33c0-2.91,.69-5.08,2.07-6.5,1.38-1.42,3.52-2.09,6.44-2.01l33.91,1.18v9.92l-30.96-1.06v49.98h-11.46Z"/><path class="cls-1" d="M198.35,70.54c0-10.08,6.69-15.91,20.09-17.49l22.57-2.36c-.47-9.61-5.71-14.41-15.71-14.41-4.49,0-8.19,1.12-11.11,3.37-2.92,2.24-4.37,5.69-4.37,10.34h-11.11c0-6.62,2.4-12.13,7.21-16.54,4.8-4.41,11.26-6.62,19.38-6.62s14.87,2.4,19.79,7.21c4.92,4.81,7.38,11.3,7.38,19.5v23.4h8.63v9.92h-10.99c-2.29,0-4.08-.63-5.38-1.89-1.3-1.26-1.95-3.07-1.95-5.43v-2.72l1.77-6.26h-3.07c-2.92,11.66-10.63,17.49-23.16,17.49-4.1,0-7.56-.59-10.4-1.77-2.84-1.18-4.88-2.76-6.14-4.73-1.26-1.97-2.15-3.82-2.66-5.55-.51-1.73-.77-3.54-.77-5.43Zm11.46-1.65c0,2.99,.92,5.28,2.78,6.85,1.85,1.58,4.31,2.36,7.38,2.36,6.3,0,11.38-1.83,15.24-5.49,3.86-3.66,5.79-8.29,5.79-13.88l-20.56,2.13c-3.7,.47-6.4,1.3-8.09,2.48-1.69,1.18-2.54,3.03-2.54,5.55Z"/><path class="cls-1" d="M270.4,28h11.46v7.56l-2.01,7.44h3.19c1.42-4.8,4.09-8.7,8.03-11.7,3.94-2.99,9.14-4.49,15.6-4.49,8.43,0,15.14,2.88,20.15,8.63,5,5.75,7.5,13.08,7.5,21.98s-2.5,16.23-7.5,21.98c-5,5.75-11.72,8.63-20.15,8.63-6.46,0-11.66-1.5-15.6-4.49-3.94-2.99-6.62-6.93-8.03-11.82h-3.19l2.01,7.56v29.18h-11.46V28Zm17.19,13.88c-3.82,3.43-5.73,8.61-5.73,15.54s1.91,12.11,5.73,15.54c3.82,3.43,8.88,5.14,15.18,5.14s11.03-1.71,14.65-5.14c3.62-3.43,5.44-8.61,5.44-15.54s-1.81-12.11-5.44-15.54c-3.62-3.43-8.51-5.14-14.65-5.14s-11.36,1.71-15.18,5.14Z"/><path class="cls-1" d="M341.53,86.85v-9.92h16.54V36.87l-12.64,1.06v-9.92l15.36-1.18c5.51-.47,8.27,2.05,8.27,7.56v42.54h16.54v9.92h-44.07Zm20.44-67.59c-2.6,0-4.75-.81-6.44-2.42-1.69-1.61-2.54-3.64-2.54-6.08s.85-4.45,2.54-6.03c1.69-1.58,3.84-2.36,6.44-2.36s4.88,.79,6.62,2.36c1.73,1.58,2.6,3.58,2.6,6.03s-.87,4.47-2.6,6.08c-1.73,1.62-3.94,2.42-6.62,2.42Z"/><path class="cls-1" d="M455.67,86.85h-11.46v-7.56l2.01-7.56h-3.19c-1.42,4.89-4.12,8.82-8.09,11.82-3.98,2.99-9.2,4.49-15.66,4.49-8.35,0-15.03-2.89-20.03-8.68-5-5.79-7.5-13.13-7.5-22.04s2.5-16.11,7.5-21.86c5-5.75,11.68-8.63,20.03-8.63,6.46,0,11.68,1.5,15.66,4.49,3.98,2.99,6.68,6.89,8.09,11.7h3.19l-2.01-7.44V0h11.46V86.85Zm-11.46-29.54c0-6.85-1.91-11.99-5.73-15.42-3.82-3.43-8.88-5.14-15.18-5.14s-11.03,1.69-14.65,5.08c-3.62,3.39-5.43,8.55-5.43,15.48s1.81,12.23,5.43,15.66c3.62,3.43,8.51,5.14,14.65,5.14s11.36-1.73,15.18-5.2c3.82-3.46,5.73-8.66,5.73-15.6Z"/><path class="cls-1" d="M468.35,57.31c0-8.9,2.76-16.21,8.27-21.92,5.51-5.71,12.92-8.57,22.21-8.57,7.01,0,13.31,2.01,18.9,6.03,5.59,4.02,8.7,9.97,9.33,17.84h-11.58c-.71-4.8-2.56-8.33-5.55-10.57-2.99-2.25-6.7-3.37-11.11-3.37-6.22,0-10.95,1.91-14.18,5.73-3.23,3.82-4.84,8.76-4.84,14.83s1.61,11.15,4.84,15.01c3.23,3.86,7.95,5.79,14.18,5.79,4.41,0,8.11-1.12,11.11-3.37,2.99-2.24,4.84-5.77,5.55-10.58h11.58c-.63,7.88-3.74,13.82-9.33,17.84-5.59,4.02-11.9,6.03-18.9,6.03-9.3,0-16.7-2.87-22.21-8.63-5.51-5.75-8.27-13.12-8.27-22.1Z"/><path class="cls-1" d="M536.68,57.31c0-8.9,2.91-16.21,8.74-21.92,5.83-5.71,13.43-8.57,22.81-8.57s16.86,2.86,22.69,8.57c5.83,5.71,8.74,13.02,8.74,21.92s-2.92,16.35-8.74,22.1c-5.83,5.75-13.39,8.63-22.69,8.63s-16.98-2.85-22.81-8.57c-5.83-5.71-8.74-13.1-8.74-22.15Zm11.46,0c0,6.14,1.77,11.15,5.32,15.01,3.54,3.86,8.47,5.79,14.77,5.79s11.09-1.93,14.59-5.79c3.5-3.86,5.26-8.86,5.26-15.01s-1.75-11.01-5.26-14.83c-3.51-3.82-8.37-5.73-14.59-5.73s-11.23,1.91-14.77,5.73c-3.55,3.82-5.32,8.76-5.32,14.83Z"/><path class="cls-1" d="M673.44,86.85h-11.46v-7.56l2.01-7.56h-3.19c-1.42,4.89-4.12,8.82-8.09,11.82-3.98,2.99-9.2,4.49-15.66,4.49-8.35,0-15.03-2.89-20.03-8.68-5-5.79-7.5-13.13-7.5-22.04s2.5-16.11,7.5-21.86c5-5.75,11.68-8.63,20.03-8.63,6.46,0,11.68,1.5,15.66,4.49,3.98,2.99,6.68,6.89,8.09,11.7h3.19l-2.01-7.44V0h11.46V86.85Zm-11.46-29.54c0-6.85-1.91-11.99-5.73-15.42-3.82-3.43-8.88-5.14-15.18-5.14s-11.03,1.69-14.65,5.08c-3.62,3.39-5.43,8.55-5.43,15.48s1.81,12.23,5.43,15.66c3.62,3.43,8.51,5.14,14.65,5.14s11.36-1.73,15.18-5.2c3.82-3.46,5.73-8.66,5.73-15.6Z"/><path class="cls-1" d="M686.32,56.6c0-9.29,2.66-16.58,7.98-21.86,5.32-5.28,12.31-7.92,20.97-7.92s15.44,2.54,20.56,7.62c5.12,5.08,7.68,12.07,7.68,20.97v4.25h-46.08c.24,5.59,1.91,10.12,5.02,13.59,3.11,3.47,7.9,5.2,14.36,5.2,9.45,0,15.2-4.09,17.25-12.29h11.46c-1.18,5.67-4.12,10.73-8.8,15.18-4.69,4.45-11.33,6.68-19.91,6.68-10.16,0-17.78-2.95-22.86-8.86-5.08-5.91-7.62-13.43-7.62-22.57Zm11.11-4.96h34.98c0-4.41-1.48-8.07-4.43-10.99-2.95-2.91-7.19-4.37-12.7-4.37s-9.87,1.48-13.06,4.43c-3.19,2.95-4.79,6.6-4.79,10.93Z"/><path class="cls-1" d="M757.58,86.85V35.33c0-2.91,.69-5.08,2.07-6.5,1.38-1.42,3.52-2.09,6.44-2.01l33.91,1.18v9.92l-30.96-1.06v49.98h-11.46Z"/></g><g><polygon class="cls-1" points="47.45 0 61.01 0 56.49 36.16 51.97 36.16 47.45 0"/><polygon class="cls-1" points="21.25 10.66 32.99 3.88 47.15 37.45 43.24 39.71 21.25 10.66"/><polygon class="cls-1" points="3.88 32.99 10.66 21.25 39.71 43.24 37.45 47.15 3.88 32.99"/><polygon class="cls-1" points="0 61.01 0 47.45 36.16 51.97 36.16 56.49 0 61.01"/><polygon class="cls-1" points="10.66 87.22 3.88 75.48 37.45 61.32 39.71 65.23 10.66 87.22"/><polygon class="cls-1" points="32.99 104.59 21.25 97.81 43.24 68.76 47.15 71.02 32.99 104.59"/><polygon class="cls-1" points="61.01 108.47 47.45 108.47 51.97 72.31 56.49 72.31 61.01 108.47"/><polygon class="cls-1" points="87.22 97.81 75.48 104.59 61.32 71.02 65.23 68.76 87.22 97.81"/><polygon class="cls-1" points="104.59 75.48 97.81 87.22 68.76 65.23 71.02 61.32 104.59 75.48"/><polygon class="cls-1" points="108.47 47.45 108.47 61.01 72.31 56.49 72.31 51.97 108.47 47.45"/><polygon class="cls-1" points="97.81 21.25 104.59 32.99 71.02 47.15 68.76 43.24 97.81 21.25"/><polygon class="cls-1" points="75.48 3.88 87.22 10.66 65.23 39.71 61.32 37.45 75.48 3.88"/></g></g><g><path class="cls-1" d="M468.35,131.79v-23.01h5.04v21.76c0,3.81,.72,6.6,2.16,8.36,1.44,1.77,3.99,2.65,7.66,2.65s6.24-.89,7.71-2.68c1.47-1.78,2.21-4.56,2.21-8.34v-21.76h5.04v23.01c0,9.42-4.99,14.13-14.96,14.13s-14.85-4.71-14.85-14.13Z"/><path class="cls-1" d="M505.61,145.4v-36.62h10.13l16.78,35.22h1.4l-.88-3.43v-31.79h5.09v36.62h-10.13l-16.83-35.22h-1.4l.88,3.43v31.79h-5.04Z"/><path class="cls-1" d="M565.31,113.14h-8.21v27.89h8.21v4.36h-21.45v-4.36h8.21v-27.89h-8.21v-4.36h21.45v4.36Z"/><path class="cls-1" d="M570.12,108.78h5.04l11.01,35.22h1.4l11.01-35.22h5.04l-11.53,36.62h-10.44l-11.53-36.62Z"/><path class="cls-1" d="M608.68,145.4v-36.62h23.32v4.36h-18.28v11.74h15.69v4.36h-15.69v11.79h18.28v4.36h-23.32Z"/><path class="cls-1" d="M637.97,145.4v-36.62h12.52c4.78,0,8.42,.74,10.93,2.23,2.51,1.49,3.77,4.16,3.77,8,0,4.92-2.44,7.77-7.32,8.57v1.35h4.57c2.15,0,3.22,1.04,3.22,3.12v13.35h-5.04v-14.34h-17.61v14.34h-5.04Zm5.04-18.7h7.48c1.38,0,2.5-.03,3.35-.1,.85-.07,1.71-.22,2.6-.47,.88-.24,1.57-.61,2.05-1.09,.48-.48,.88-1.15,1.19-2,.31-.85,.47-1.9,.47-3.14s-.16-2.29-.47-3.12c-.31-.83-.71-1.49-1.19-1.97-.49-.48-1.17-.85-2.05-1.09-.88-.24-1.75-.4-2.6-.47-.85-.07-1.97-.1-3.35-.1h-7.48v13.56Z"/><path class="cls-1" d="M702.73,136c0,6.61-4.8,9.92-14.39,9.92-6.09,0-10.42-1.22-12.99-3.66-2.56-2.44-3.84-5.98-3.84-10.62h5.04c0,3.81,.96,6.41,2.88,7.82,1.92,1.4,4.93,2.1,9.01,2.1,3.12,0,5.44-.42,6.96-1.25,1.52-.83,2.29-2.2,2.29-4.1,0-.69-.1-1.32-.29-1.9-.19-.57-.55-1.09-1.09-1.56-.54-.47-1-.86-1.4-1.17-.4-.31-1.07-.65-2.03-1.01-.95-.36-1.65-.62-2.08-.78-.43-.16-1.26-.42-2.49-.78-1.23-.36-2.03-.6-2.42-.7-1.73-.52-3.13-.97-4.18-1.35-1.06-.38-2.19-.88-3.4-1.51-1.21-.62-2.15-1.28-2.8-1.97-.66-.69-1.21-1.55-1.66-2.57-.45-1.02-.68-2.17-.68-3.45,0-6.13,4.41-9.19,13.24-9.19,5.02,0,8.74,1.23,11.17,3.69,2.42,2.46,3.64,5.44,3.64,8.93h-5.04c0-2.77-.91-4.84-2.73-6.21-1.82-1.37-4.16-2.05-7.04-2.05-5.47,0-8.21,1.59-8.21,4.78,0,1.59,.63,2.81,1.9,3.66,1.26,.85,3.54,1.81,6.83,2.88,4.71,1.49,7.81,2.6,9.3,3.32,4.33,2.15,6.49,5.06,6.49,8.73Z"/><path class="cls-1" d="M728.77,113.14h-8.21v27.89h8.21v4.36h-21.45v-4.36h8.21v-27.89h-8.21v-4.36h21.45v4.36Z"/><path class="cls-1" d="M764.01,108.78v4.36h-12.57v32.26h-5.04v-32.26h-12.57v-4.36h30.18Z"/><path class="cls-1" d="M794.6,108.78h5.4l-13.35,23.32v13.3h-5.04v-13.3l-13.3-23.32h5.4l9.71,17.35v3.27h1.4v-3.27l9.76-17.35Z"/></g></svg>