<?xml version="1.0" encoding="UTF-8"?><svg id="Full_Lockup_Arufabudo_Red" xmlns="http://www.w3.org/2000/svg" viewBox="0 0 1000 202.71"><defs><style>.cls-1{fill:#e00b17;}</style></defs><g id="Arufabudo_Logo"><g id="Wolf_s_Head"><path class="cls-1" d="M70.85,108.64s35.65,3.5,23.97,26.84l95.61-5.96s-17.88-16.14,3.23-46.44l-122.81,25.56Z"/><path class="cls-1" d="M92.09,141.44l98.34-2.73s-30.4,23.62-22.2,64c0,0-61.93-50.09-91.99-33.39,0,0-21.66,10.7-28.99,1.02-7.32-9.68-12.3-22.24-12.3-22.24,0,0,31.59,13.89,57.13-6.66Z"/><path class="cls-1" d="M41.8,69.6s-18.21-18.21,35.67-28.94C77.47,40.66,141.83,30.68,169.27,0,169.27,0,166.26,19.94,183.24,31.03L41.8,69.6Z"/><path class="cls-1" d="M185.93,37.15L34.1,77.66S-8.08,88.26,1.38,100.53c11.28,14.62,29.69,32.68,29.69,32.68,0,0-10.78-21.33,52.39-34.16l110.7-22.05s-20.01-16.23-8.23-39.85Z"/></g><g id="Wordmark"><path class="cls-1" d="M284.06,163.72l-3.51-25.65h-20.55l-3.51,25.65h-29.33l23.71-124.72h38.82l23.89,124.72h-29.51Zm-21.26-46.38h14.93l-5.09-37.42c-.7-5.62-1.41-10.19-2.11-17.04h-.53c-.53,6.85-1.41,11.42-2.11,17.04l-5.09,37.42Z"/><path class="cls-1" d="M370.48,163.72l-11.77-49.54h-7.03v49.54h-29.34V39h36.54c28.46,0,39.52,13.17,39.52,34.6v5.1c0,14.23-5.27,23.36-14.05,28.28l16.69,56.74h-30.57Zm-18.79-67.45h5.09c8.61,0,11.42-4.92,11.42-15.63v-8.78c0-9.84-2.99-13.35-11.42-13.35h-5.09v37.77Z"/><path class="cls-1" d="M408.06,39h29.34v91.7c0,7.38,3.16,11.42,8.96,11.42s9.14-4.04,9.14-11.42V39h29.16v92.75c0,21.78-13.7,34.96-38.3,34.96s-38.29-13-38.29-34.96V39Z"/><path class="cls-1" d="M559.07,61.13h-31.62v27.75h29.33v21.96h-29.33v52.87h-29.34V39h60.96v22.13Z"/><path class="cls-1" d="M611.29,163.72l-3.51-25.65h-20.55l-3.51,25.65h-29.33l23.71-124.72h38.82l23.89,124.72h-29.51Zm-21.26-46.38h14.93l-5.09-37.42c-.7-5.62-1.41-10.19-2.11-17.04h-.53c-.53,6.85-1.41,11.42-2.11,17.04l-5.09,37.42Z"/><path class="cls-1" d="M725.64,125.95v3.69c0,20.73-11.95,34.08-36.36,34.08h-39.7V39h38.47c24.59,0,36.19,12.82,36.19,31.44v4.04c0,11.24-5.8,20.03-16.34,23.19,11.42,4.04,17.74,13.52,17.74,28.28Zm-46.73-67.45v32.67h5.09c7.73,0,10.19-5.27,10.19-15.81v-4.04c0-8.61-2.63-12.82-10.19-12.82h-5.09Zm16.51,65.87c0-10.72-3.16-15.46-10.37-15.46h-6.15v35.31h6.15c7.38,0,10.37-5.09,10.37-15.46v-4.39Z"/><path class="cls-1" d="M737.93,39h29.34v91.7c0,7.38,3.16,11.42,8.96,11.42s9.14-4.04,9.14-11.42V39h29.16v92.75c0,21.78-13.7,34.96-38.3,34.96s-38.29-13-38.29-34.96V39Z"/><path class="cls-1" d="M827.98,163.72V39h36.19c27.05,0,42.33,14.58,42.33,40.75v41.63c0,27.4-14.93,42.33-42.51,42.33h-36.01Zm29.34-20.73h6.15c8.43,0,12.82-7.73,12.82-19.85v-44.97c0-12.47-3.69-18.44-12.82-18.44h-6.15v83.26Z"/><path class="cls-1" d="M918.49,125.6v-48.48c0-26.35,15.46-41.11,40.75-41.11s40.76,14.76,40.76,41.11v48.48c0,26.35-15.46,41.1-40.76,41.1s-40.75-14.75-40.75-41.1Zm51.29,3.86v-56.21c0-9.66-3.86-14.76-10.54-14.76s-10.54,5.09-10.54,14.76v56.21c0,9.66,3.86,14.75,10.54,14.75s10.54-5.09,10.54-14.75Z"/></g></g></svg>