mtllib Ylabs_3D Object Logo.mtl
g Plane

# Vertex Positions:
v 12.14568 18.7545 2.15331
v 12.90713 18.87642 1.71422
v 12.37459 10.18322 -0.72446
v 11.38595 18.55015 2.56427
v 13.66398 18.91451 1.25186
v 14.40825 18.86845 0.77022
v 15.13288 18.73857 0.27431
v 15.83105 18.52659 -0.23104
v 16.49571 18.23427 -0.74128
v 17.12078 17.86402 -1.25131
v 17.70041 17.42033 -1.75621
v 18.22827 16.90668 -2.25113
v 18.70004 16.32827 -2.73155
v 19.11063 15.69063 -3.19273
v 19.45669 15 -3.63005
v 19.73438 14.26295 -4.03894
v 19.94121 13.48677 -4.41641
v 20.07536 12.67872 -4.7582
v 20.13504 11.84677 -5.06102
v 20.12005 10.99854 -5.32244
v 20.03062 10.14235 -5.53948
v 19.86729 9.28685 -5.70988
v 19.63192 8.44001 -5.8325
v 19.32657 7.60979 -5.90543
v 18.95447 6.80451 -5.92914
v 18.51845 6.03145 -5.90238
v 18.02398 5.29856 -5.82567
v 17.4746 4.61277 -5.70017
v 16.87651 3.98067 -5.52656
v 16.23454 3.40814 -5.30664
v 15.55578 2.90108 -5.04273
v 14.84634 2.46398 -4.73726
v 14.11308 2.10134 -4.39282
v 13.363 1.81629 -4.01346
v 12.6035 1.61194 -3.60223
v 11.84156 1.49037 -3.16318
v 11.0852 1.45227 -2.70078
v 10.34092 1.49834 -2.21914
v 9.61607 1.62787 -1.7235
v 8.91813 1.84019 -1.21788
v 8.25347 2.13251 -0.70764
v 7.6284 2.50242 -0.19761
v 7.04877 2.94645 0.30729
v 6.52064 3.4601 0.80244
v 6.04914 4.03851 1.28263
v 5.63833 4.67616 1.74354
v 5.29226 5.36644 2.18086
v 5.01454 6.10349 2.59024
v 4.8077 6.88002 2.96771
v 4.67382 7.68807 3.30928
v 4.61387 8.52002 3.61232
v 4.62913 9.36824 3.87352
v 4.71834 10.22409 4.09029
v 4.88189 11.07994 4.26096
v 5.11703 11.92678 4.38331
v 5.42234 12.75699 4.45674
v 5.79471 13.56227 4.48022
v 6.23024 14.33534 4.45342
v 6.7252 15.06823 4.37675
v 7.27458 15.75401 4.25124
v 7.87267 16.38611 4.07764
v 8.51437 16.95829 3.85794
v 9.1934 17.46571 3.59381
v 9.90262 17.90281 3.28807
v 10.6361 18.26544 2.9439
v 15.00136 17.30223 6.70644
v 14.24185 17.09787 7.11767
v 15.23027 8.73095 3.82867
v 15.76303 17.4238 6.26762
v 13.492 16.81317 7.4973
v 12.75852 16.45019 7.84148
v 12.04908 16.01344 8.14695
v 11.37005 15.50602 8.41108
v 10.72857 14.9335 8.63104
v 10.13026 14.30139 8.80438
v 9.58083 13.61561 8.93037
v 9.08614 12.88272 9.00682
v 8.65061 12.11 9.03362
v 8.27824 11.30437 9.01014
v 7.97293 10.47451 8.93672
v 7.73757 9.62732 8.8141
v 7.57423 8.77182 8.64369
v 7.48481 7.91597 8.42665
v 7.46978 7.06775 8.16573
v 7.52972 6.23545 7.86268
v 7.6636 5.4274 7.52111
v 7.87044 4.65122 7.14364
v 8.14817 3.91417 6.73427
v 8.49396 3.22354 6.29716
v 8.90504 2.5859 5.83603
v 9.37654 2.00783 5.35584
v 9.90467 1.49418 4.86069
v 10.48408 1.05015 4.35552
v 11.10914 0.68024 3.8455
v 11.77381 0.38757 3.33525
v 12.47197 0.1756 2.8299
v 13.1966 0.04607 2.334
v 13.94061 0 1.85258
v 14.69746 0.0381 1.39022
v 15.4594 0.15967 0.95117
v 16.2189 0.36402 0.53994
v 16.96876 0.64873 0.16032
v 17.70224 1.01171 -0.18386
v 18.41167 1.44846 -0.48933
v 19.09044 1.95587 -0.75324
v 19.73219 2.5284 -0.97342
v 20.3305 3.1605 -1.14676
v 20.87966 3.84629 -1.27253
v 21.37436 4.57917 -1.34898
v 21.81015 5.3519 -1.376
v 22.18225 6.15717 -1.3523
v 22.48783 6.98739 -1.2791
v 22.72319 7.83458 -1.15648
v 22.88652 8.69008 -0.98608
v 22.97595 9.54592 -0.76904
v 22.99072 10.39415 -0.50789
v 22.93103 11.22645 -0.20507
v 22.79689 12.03449 0.13673
v 22.59005 12.81068 0.5142
v 22.31259 13.54772 0.92335
v 21.96653 14.23836 1.36067
v 21.55572 14.876 1.82159
v 21.08394 15.45407 2.302
v 20.55581 15.96772 2.79715
v 19.97668 16.41174 3.3021
v 19.35161 16.78165 3.81212
v 18.68646 17.07432 4.32232
v 17.98851 17.28629 4.82794
v 17.26416 17.41583 5.32362
v 16.51988 17.46189 5.80526
v 14.33519 18.15011 3.99105
v 15.09182 18.18821 3.52843
v 13.57352 18.02853 4.42987
v 12.81402 17.82418 4.8411
v 12.06394 17.53913 5.22046
v 11.33068 17.1765 5.56491
v 10.62124 16.7394 5.87038
v 9.94221 16.23233 6.13451
v 9.30051 15.6598 6.35421
v 8.70242 15.02771 6.52781
v 8.15326 14.34192 6.65358
v 7.6583 13.60903 6.73025
v 7.22255 12.83631 6.75679
v 6.8504 12.03068 6.73357
v 6.54509 11.20047 6.66015
v 6.30973 10.35363 6.53753
v 6.1464 9.49813 6.36713
v 6.05697 8.64193 6.15009
v 6.04194 7.79405 5.88916
v 6.10188 6.96176 5.58611
v 6.23554 6.15371 5.24428
v 6.4426 5.37753 4.86707
v 6.72033 4.64048 4.4577
v 7.06639 3.94985 4.02037
v 7.47698 3.31221 3.5592
v 7.94849 2.73379 3.079
v 8.47684 2.22014 2.58412
v 9.05624 1.77646 2.07895
v 9.68131 1.40621 1.56893
v 10.34597 1.11388 1.05869
v 11.04414 0.90191 0.55334
v 11.76876 0.77203 0.05743
v 12.51304 0.72596 -0.42422
v 13.26962 0.76406 -0.88635
v 14.03156 0.88598 -1.32539
v 14.79106 1.09033 -1.73662
v 15.54092 1.37503 -2.11625
v 16.2744 1.73767 -2.46043
v 16.98384 2.17477 -2.7659
v 17.6626 2.68218 -3.0298
v 18.30435 3.25436 -3.24999
v 18.90266 3.88681 -3.42333
v 19.45182 4.57259 -3.5491
v 19.94651 5.30548 -3.62555
v 20.38231 6.07821 -3.65257
v 20.75441 6.88348 -3.62887
v 21.05999 7.7137 -3.55567
v 21.29513 8.56054 -3.43331
v 21.45868 9.41639 -3.26264
v 21.54789 10.27223 -3.04587
v 21.56288 11.12046 -2.78445
v 21.50319 11.95241 -2.48163
v 21.36905 12.76046 -2.13984
v 21.16221 13.53699 -1.76237
v 20.88475 14.27403 -1.35322
v 20.53869 14.96432 -0.91589
v 20.12788 15.60196 -0.45498
v 19.65611 16.18038 0.02543
v 19.12824 16.69402 0.52036
v 18.54861 17.13805 1.02526
v 17.92355 17.50796 1.53529
v 17.25888 17.80029 2.04553
v 16.56094 18.0126 2.55115
v 15.83632 18.14214 3.04705

# Vertex Texture Coordinates:
vt 0.42812 0.54019 
vt 0.42812 0.50336 
vt 0.69253 0.48299 
vt 0.43321 0.57592 
vt 0.42812 0.46653 
vt 0.43321 0.43002 
vt 0.43828 0.39351 
vt 0.44825 0.35871 
vt 0.45822 0.32392 
vt 0.47269 0.29218 
vt 0.48715 0.26044 
vt 0.50557 0.23298 
vt 0.52398 0.20552 
vt 0.54563 0.18339 
vt 0.56729 0.16126 
vt 0.59135 0.14532 
vt 0.6154 0.12937 
vt 0.64094 0.12021 
vt 0.66649 0.11106 
vt 0.69253 0.10905 
vt 0.71857 0.10705 
vt 0.74411 0.11227 
vt 0.76965 0.11748 
vt 0.79371 0.12972 
vt 0.81777 0.14196 
vt 0.83942 0.16076 
vt 0.86107 0.17955 
vt 0.87949 0.20417 
vt 0.8979 0.2288 
vt 0.91237 0.2583 
vt 0.92684 0.28781 
vt 0.9368 0.32107 
vt 0.94677 0.35433 
vt 0.95185 0.39006 
vt 0.95693 0.42579 
vt 0.95693 0.46262 
vt 0.95693 0.49944 
vt 0.95185 0.53596 
vt 0.94677 0.57247 
vt 0.9368 0.60726 
vt 0.92684 0.64206 
vt 0.91237 0.67379 
vt 0.8979 0.70553 
vt 0.87949 0.73299 
vt 0.86107 0.76045 
vt 0.83942 0.78258 
vt 0.81777 0.80471 
vt 0.79371 0.82066 
vt 0.76965 0.83661 
vt 0.74411 0.84576 
vt 0.71857 0.85491 
vt 0.69253 0.85692 
vt 0.66648 0.85893 
vt 0.64094 0.85371 
vt 0.6154 0.84849 
vt 0.59134 0.83625 
vt 0.56728 0.82401 
vt 0.54563 0.80522 
vt 0.52398 0.78643 
vt 0.50556 0.7618 
vt 0.48715 0.73718 
vt 0.47268 0.70767 
vt 0.45822 0.67816 
vt 0.44825 0.64491 
vt 0.43828 0.61165 
vt 0.44381 0.41192 
vt 0.45378 0.37712 
vt 0.69805 0.5014 
vt 0.43873 0.44843 
vt 0.46374 0.34233 
vt 0.47821 0.3106 
vt 0.49268 0.27886 
vt 0.51109 0.2514 
vt 0.52951 0.22394 
vt 0.55116 0.20181 
vt 0.57281 0.17968 
vt 0.59687 0.16373 
vt 0.62093 0.14778 
vt 0.64647 0.13863 
vt 0.67201 0.12948 
vt 0.69805 0.12747 
vt 0.72409 0.12546 
vt 0.74964 0.13068 
vt 0.77518 0.1359 
vt 0.79924 0.14814 
vt 0.82329 0.16038 
vt 0.84495 0.17917 
vt 0.8666 0.19796 
vt 0.88501 0.22259 
vt 0.90343 0.24721 
vt 0.9179 0.27672 
vt 0.93236 0.30623 
vt 0.94233 0.33948 
vt 0.95229 0.37274 
vt 0.95737 0.40847 
vt 0.96245 0.4442 
vt 0.96245 0.48103 
vt 0.96245 0.51786 
vt 0.95737 0.55437 
vt 0.95229 0.59088 
vt 0.94233 0.62568 
vt 0.93236 0.66047 
vt 0.91789 0.69221 
vt 0.90343 0.72395 
vt 0.88501 0.75141 
vt 0.8666 0.77887 
vt 0.84495 0.801 
vt 0.82329 0.82313 
vt 0.79923 0.83907 
vt 0.77517 0.85502 
vt 0.74963 0.86417 
vt 0.72409 0.87333 
vt 0.69805 0.87533 
vt 0.67201 0.87734 
vt 0.64647 0.87212 
vt 0.62093 0.86691 
vt 0.59687 0.85467 
vt 0.57281 0.84242 
vt 0.55116 0.82363 
vt 0.52951 0.80484 
vt 0.51109 0.78022 
vt 0.49268 0.75559 
vt 0.47821 0.72609 
vt 0.46374 0.69658 
vt 0.45378 0.66332 
vt 0.44381 0.63006 
vt 0.43873 0.59433 
vt 0.43365 0.5586 
vt 0.43365 0.52177 
vt 0.43365 0.48494 
vt 0.23971 0.62304 
vt 0.23971 0.65926 
vt 0.19123 0.65918 
vt 0.19123 0.62284 
vt 0.23971 0.69547 
vt 0.19123 0.69489 
vt 0.14274 0.69547 
vt 0.14274 0.65926 
vt 0.14274 0.62304 
vt 0.23971 0.72959 
vt 0.19123 0.72944 
vt 0.23971 0.76371 
vt 0.19123 0.76276 
vt 0.14274 0.76371 
vt 0.14274 0.72959 
vt 0.23971 0.79441 
vt 0.19123 0.79419 
vt 0.23971 0.82512 
vt 0.19123 0.82384 
vt 0.14274 0.82512 
vt 0.14274 0.79441 
vt 0.23971 0.85123 
vt 0.19123 0.8511 
vt 0.23971 0.87734 
vt 0.19123 0.87734 
vt 0.14274 0.87734 
vt 0.14274 0.85123 
vt 0.33668 0.3471 
vt 0.33668 0.37321 
vt 0.2882 0.37334 
vt 0.2882 0.3471 
vt 0.33668 0.39933 
vt 0.2882 0.4006 
vt 0.23971 0.39933 
vt 0.23971 0.37321 
vt 0.23971 0.3471 
vt 0.33668 0.43003 
vt 0.2882 0.43025 
vt 0.33668 0.46073 
vt 0.2882 0.46168 
vt 0.23971 0.46073 
vt 0.23971 0.43003 
vt 0.33668 0.49485 
vt 0.2882 0.49501 
vt 0.33668 0.52897 
vt 0.2882 0.52955 
vt 0.23971 0.52897 
vt 0.23971 0.49485 
vt 0.33668 0.56519 
vt 0.2882 0.56527 
vt 0.33668 0.60141 
vt 0.2882 0.6016 
vt 0.23971 0.60141 
vt 0.23971 0.56519 
vt 0.33668 0.63833 
vt 0.2882 0.63833 
vt 0.33668 0.67526 
vt 0.2882 0.67506 
vt 0.23971 0.67526 
vt 0.23971 0.63833 
vt 0.33668 0.71148 
vt 0.2882 0.7114 
vt 0.33668 0.7477 
vt 0.2882 0.74711 
vt 0.23971 0.7477 
vt 0.23971 0.71148 
vt 0.33668 0.78181 
vt 0.2882 0.78166 
vt 0.33668 0.81593 
vt 0.2882 0.81498 
vt 0.23971 0.81593 
vt 0.23971 0.78181 
vt 0.33668 0.84664 
vt 0.2882 0.84654 
vt 0.33668 0.87734 
vt 0.2882 0.87734 
vt 0.23971 0.87734 
vt 0.23971 0.84664 
vt 0.33668 0.85123 
vt 0.38517 0.8511 
vt 0.38517 0.87734 
vt 0.33668 0.82512 
vt 0.38517 0.82384 
vt 0.43365 0.82512 
vt 0.43365 0.85123 
vt 0.43365 0.87734 
vt 0.33668 0.79441 
vt 0.38517 0.79419 
vt 0.33668 0.76371 
vt 0.38517 0.76276 
vt 0.43365 0.76371 
vt 0.43365 0.79441 
vt 0.33668 0.72959 
vt 0.38517 0.72944 
vt 0.33668 0.69547 
vt 0.38517 0.69489 
vt 0.43365 0.69547 
vt 0.43365 0.72959 
vt 0.33668 0.65926 
vt 0.38517 0.65918 
vt 0.33668 0.62304 
vt 0.38517 0.62284 
vt 0.43365 0.62304 
vt 0.43365 0.65926 
vt 0.33668 0.58611 
vt 0.38517 0.58611 
vt 0.33668 0.54918 
vt 0.38517 0.54938 
vt 0.43365 0.54918 
vt 0.43365 0.58611 
vt 0.33668 0.51296 
vt 0.38517 0.51304 
vt 0.33668 0.47675 
vt 0.38517 0.47733 
vt 0.43365 0.47675 
vt 0.43365 0.51296 
vt 0.33668 0.44263 
vt 0.38517 0.44278 
vt 0.33668 0.40851 
vt 0.38517 0.40946 
vt 0.43365 0.40851 
vt 0.43365 0.44263 
vt 0.33668 0.37781 
vt 0.38517 0.37803 
vt 0.33668 0.3471 
vt 0.38517 0.34838 
vt 0.43365 0.3471 
vt 0.43365 0.37781 
vt 0.33668 0.32099 
vt 0.38517 0.32112 
vt 0.33668 0.29488 
vt 0.38517 0.29488 
vt 0.43365 0.29488 
vt 0.43365 0.32099 
vt 0.04577 0.87734 
vt 0.04577 0.84664 
vt 0.09426 0.84654 
vt 0.09426 0.87734 
vt 0.04577 0.81593 
vt 0.09426 0.81498 
vt 0.14274 0.81593 
vt 0.14274 0.84664 
vt 0.14274 0.87734 
vt 0.04577 0.78181 
vt 0.09426 0.78166 
vt 0.04577 0.7477 
vt 0.09426 0.74711 
vt 0.14274 0.7477 
vt 0.14274 0.78181 
vt 0.04577 0.71148 
vt 0.09426 0.7114 
vt 0.04577 0.67526 
vt 0.09426 0.67506 
vt 0.14274 0.67526 
vt 0.14274 0.71148 
vt 0.04577 0.63833 
vt 0.09426 0.63833 
vt 0.04577 0.60141 
vt 0.09426 0.6016 
vt 0.14274 0.60141 
vt 0.14274 0.63833 
vt 0.04577 0.56519 
vt 0.09426 0.56526 
vt 0.04577 0.52897 
vt 0.09426 0.52955 
vt 0.14274 0.52897 
vt 0.14274 0.56519 
vt 0.04577 0.49485 
vt 0.09426 0.49501 
vt 0.04577 0.46073 
vt 0.09426 0.46168 
vt 0.14274 0.46073 
vt 0.14274 0.49485 
vt 0.04577 0.43003 
vt 0.09426 0.43013 
vt 0.04577 0.39933 
vt 0.09426 0.39933 
vt 0.14274 0.39933 
vt 0.14274 0.43003 
vt 0.23971 0.3471 
vt 0.23971 0.37781 
vt 0.19123 0.3779 
vt 0.19123 0.3471 
vt 0.23971 0.40851 
vt 0.19123 0.40946 
vt 0.14274 0.40851 
vt 0.14274 0.37781 
vt 0.14274 0.3471 
vt 0.23971 0.44263 
vt 0.19123 0.44278 
vt 0.23971 0.47675 
vt 0.19123 0.47733 
vt 0.14274 0.47675 
vt 0.14274 0.44263 
vt 0.23971 0.51296 
vt 0.19123 0.51304 
vt 0.23971 0.54918 
vt 0.19123 0.54938 
vt 0.14274 0.54918 
vt 0.14274 0.51296 
vt 0.23971 0.58611 
vt 0.19123 0.58611 
vt 0.14274 0.58611 

# Vertex Surface Normals:
vn -0.00148 0.00075 -0.00236
vn 0.00148 -0.00075 0.00236
vn 0.00041 0.00279 0.00063
vn 0.00017 0.00278 0.00078
vn -0.00007 0.00274 0.00092
vn -0.00032 0.00267 0.00105
vn -0.00055 0.00258 0.00117
vn -0.00079 0.00246 0.00128
vn -0.00102 0.00232 0.00138
vn -0.00102 0.00232 0.00138
vn -0.00123 0.00216 0.00146
vn -0.00144 0.00198 0.00153
vn -0.00163 0.00178 0.00159
vn -0.0018 0.00156 0.00163
vn -0.00196 0.00133 0.00165
vn -0.0021 0.00108 0.00166
vn -0.00222 0.00082 0.00165
vn -0.00232 0.00056 0.00163
vn -0.00239 0.00029 0.00159
vn -0.00244 0.00001 0.00154
vn -0.00247 -0.00026 0.00147
vn -0.00248 -0.00053 0.00138
vn -0.00246 -0.0008 0.00129
vn -0.00242 -0.00105 0.00118
vn -0.00235 -0.0013 0.00106
vn -0.00226 -0.00154 0.00093
vn -0.00215 -0.00176 0.00079
vn -0.00202 -0.00196 0.00064
vn -0.00187 -0.00215 0.00049
vn -0.0017 -0.00231 0.00033
vn -0.00152 -0.00245 0.00017
vn -0.00132 -0.00257 0.00001
vn -0.0011 -0.00266 -0.00016
vn -0.00088 -0.00273 -0.00032
vn -0.00065 -0.00277 -0.00048
vn -0.00041 -0.00279 -0.00063
vn -0.00017 -0.00278 -0.00078
vn 0.00007 -0.00274 -0.00092
vn 0.00032 -0.00267 -0.00105
vn 0.00055 -0.00258 -0.00117
vn 0.00079 -0.00246 -0.00128
vn 0.00102 -0.00232 -0.00138
vn 0.00123 -0.00216 -0.00146
vn 0.00144 -0.00198 -0.00153
vn 0.00163 -0.00178 -0.00159
vn 0.0018 -0.00156 -0.00163
vn 0.00196 -0.00133 -0.00165
vn 0.0021 -0.00108 -0.00166
vn 0.00222 -0.00082 -0.00165
vn 0.00232 -0.00056 -0.00163
vn 0.00239 -0.00029 -0.00159
vn 0.00244 -0.00001 -0.00154
vn 0.00247 0.00026 -0.00147
vn 0.00248 0.00053 -0.00138
vn 0.00246 0.0008 -0.00129
vn 0.00242 0.00105 -0.00118
vn 0.00242 0.00105 -0.00118
vn 0.00235 0.0013 -0.00106
vn 0.00226 0.00154 -0.00093
vn 0.00215 0.00176 -0.00079
vn 0.00202 0.00196 -0.00064
vn 0.00187 0.00215 -0.00049
vn 0.0017 0.00231 -0.00033
vn 0.00152 0.00245 -0.00017
vn 0.00132 0.00257 -0.00001
vn 0.00132 0.00257 -0.00001
vn 0.0011 0.00266 0.00016
vn 0.00088 0.00273 0.00032
vn 0.00065 0.00277 0.00048

# Faces:
usemtl Metal
f 1/1/1 2/2/1 3/3/1 4/4/1
f 5/5/1 6/6/1 3/3/1 2/2/1
f 7/7/1 8/8/1 3/3/1 6/6/1
f 9/9/1 10/10/1 3/3/1 8/8/1
f 11/11/1 12/12/1 3/3/1 10/10/1
f 13/13/1 14/14/1 3/3/1 12/12/1
f 15/15/1 16/16/1 3/3/1 14/14/1
f 17/17/1 18/18/1 3/3/1 16/16/1
f 19/19/1 20/20/1 3/3/1 18/18/1
f 21/21/1 22/22/1 3/3/1 20/20/1
f 23/23/1 24/24/1 3/3/1 22/22/1
f 25/25/1 26/26/1 3/3/1 24/24/1
f 27/27/1 28/28/1 3/3/1 26/26/1
f 29/29/1 30/30/1 3/3/1 28/28/1
f 31/31/1 32/32/1 3/3/1 30/30/1
f 33/33/1 34/34/1 3/3/1 32/32/1
f 35/35/1 36/36/1 3/3/1 34/34/1
f 37/37/1 38/38/1 3/3/1 36/36/1
f 39/39/1 40/40/1 3/3/1 38/38/1
f 41/41/1 42/42/1 3/3/1 40/40/1
f 43/43/1 44/44/1 3/3/1 42/42/1
f 45/45/1 46/46/1 3/3/1 44/44/1
f 47/47/1 48/48/1 3/3/1 46/46/1
f 49/49/1 50/50/1 3/3/1 48/48/1
f 51/51/1 52/52/1 3/3/1 50/50/1
f 53/53/1 54/54/1 3/3/1 52/52/1
f 55/55/1 56/56/1 3/3/1 54/54/1
f 57/57/1 58/58/1 3/3/1 56/56/1
f 59/59/1 60/60/1 3/3/1 58/58/1
f 61/61/1 62/62/1 3/3/1 60/60/1
f 63/63/1 64/64/1 3/3/1 62/62/1
f 65/65/1 4/4/1 3/3/1 64/64/1
f 66/66/2 67/67/2 68/68/2 69/69/2
f 70/70/2 71/71/2 68/68/2 67/67/2
f 72/72/2 73/73/2 68/68/2 71/71/2
f 74/74/2 75/75/2 68/68/2 73/73/2
f 76/76/2 77/77/2 68/68/2 75/75/2
f 78/78/2 79/79/2 68/68/2 77/77/2
f 80/80/2 81/81/2 68/68/2 79/79/2
f 82/82/2 83/83/2 68/68/2 81/81/2
f 84/84/2 85/85/2 68/68/2 83/83/2
f 86/86/2 87/87/2 68/68/2 85/85/2
f 88/88/2 89/89/2 68/68/2 87/87/2
f 90/90/2 91/91/2 68/68/2 89/89/2
f 92/92/2 93/93/2 68/68/2 91/91/2
f 94/94/2 95/95/2 68/68/2 93/93/2
f 96/96/2 97/97/2 68/68/2 95/95/2
f 98/98/2 99/99/2 68/68/2 97/97/2
f 100/100/2 101/101/2 68/68/2 99/99/2
f 102/102/2 103/103/2 68/68/2 101/101/2
f 104/104/2 105/105/2 68/68/2 103/103/2
f 106/106/2 107/107/2 68/68/2 105/105/2
f 108/108/2 109/109/2 68/68/2 107/107/2
f 110/110/2 111/111/2 68/68/2 109/109/2
f 112/112/2 113/113/2 68/68/2 111/111/2
f 114/114/2 115/115/2 68/68/2 113/113/2
f 116/116/2 117/117/2 68/68/2 115/115/2
f 118/118/2 119/119/2 68/68/2 117/117/2
f 120/120/2 121/121/2 68/68/2 119/119/2
f 122/122/2 123/123/2 68/68/2 121/121/2
f 124/124/2 125/125/2 68/68/2 123/123/2
f 126/126/2 127/127/2 68/68/2 125/125/2
f 128/128/2 129/129/2 68/68/2 127/127/2
f 130/130/2 69/69/2 68/68/2 129/129/2
f 5/131/3 2/132/4 131/133/4 132/134/3
f 2/132/4 1/135/5 133/136/5 131/133/4
f 131/133/4 133/136/5 66/137/5 69/138/4
f 132/134/3 131/133/4 69/138/4 130/139/3
f 1/135/5 4/140/6 134/141/6 133/136/5
f 4/140/6 65/142/7 135/143/7 134/141/6
f 134/141/6 135/143/7 70/144/7 67/145/6
f 133/136/5 134/141/6 67/145/6 66/137/5
f 65/142/7 64/146/8 136/147/8 135/143/7
f 64/146/8 63/148/9 137/149/9 136/147/8
f 136/147/8 137/149/9 72/150/10 71/151/8
f 135/143/7 136/147/8 71/151/8 70/144/7
f 63/148/9 62/152/11 138/153/11 137/149/9
f 62/152/11 61/154/12 139/155/12 138/153/11
f 138/153/11 139/155/12 74/156/12 73/157/11
f 137/149/9 138/153/11 73/157/11 72/150/10
f 61/158/12 60/159/13 140/160/13 139/161/12
f 60/159/13 59/162/14 141/163/14 140/160/13
f 140/160/13 141/163/14 76/164/14 75/165/13
f 139/161/12 140/160/13 75/165/13 74/166/12
f 59/162/14 58/167/15 142/168/15 141/163/14
f 58/167/15 57/169/16 143/170/16 142/168/15
f 142/168/15 143/170/16 78/171/16 77/172/15
f 141/163/14 142/168/15 77/172/15 76/164/14
f 57/169/16 56/173/17 144/174/17 143/170/16
f 56/173/17 55/175/18 145/176/18 144/174/17
f 144/174/17 145/176/18 80/177/18 79/178/17
f 143/170/16 144/174/17 79/178/17 78/171/16
f 55/175/18 54/179/19 146/180/19 145/176/18
f 54/179/19 53/181/20 147/182/20 146/180/19
f 146/180/19 147/182/20 82/183/20 81/184/19
f 145/176/18 146/180/19 81/184/19 80/177/18
f 53/181/20 52/185/21 148/186/21 147/182/20
f 52/185/21 51/187/22 149/188/22 148/186/21
f 148/186/21 149/188/22 84/189/22 83/190/21
f 147/182/20 148/186/21 83/190/21 82/183/20
f 51/187/22 50/191/23 150/192/23 149/188/22
f 50/191/23 49/193/24 151/194/24 150/192/23
f 150/192/23 151/194/24 86/195/24 85/196/23
f 149/188/22 150/192/23 85/196/23 84/189/22
f 49/193/24 48/197/25 152/198/25 151/194/24
f 48/197/25 47/199/26 153/200/26 152/198/25
f 152/198/25 153/200/26 88/201/26 87/202/25
f 151/194/24 152/198/25 87/202/25 86/195/24
f 47/199/26 46/203/27 154/204/27 153/200/26
f 46/203/27 45/205/28 155/206/28 154/204/27
f 154/204/27 155/206/28 90/207/28 89/208/27
f 153/200/26 154/204/27 89/208/27 88/201/26
f 45/205/28 44/209/29 156/210/29 155/211/28
f 44/209/29 43/212/30 157/213/30 156/210/29
f 156/210/29 157/213/30 92/214/30 91/215/29
f 155/211/28 156/210/29 91/215/29 90/216/28
f 43/212/30 42/217/31 158/218/31 157/213/30
f 42/217/31 41/219/32 159/220/32 158/218/31
f 158/218/31 159/220/32 94/221/32 93/222/31
f 157/213/30 158/218/31 93/222/31 92/214/30
f 41/219/32 40/223/33 160/224/33 159/220/32
f 40/223/33 39/225/34 161/226/34 160/224/33
f 160/224/33 161/226/34 96/227/34 95/228/33
f 159/220/32 160/224/33 95/228/33 94/221/32
f 39/225/34 38/229/35 162/230/35 161/226/34
f 38/229/35 37/231/36 163/232/36 162/230/35
f 162/230/35 163/232/36 98/233/36 97/234/35
f 161/226/34 162/230/35 97/234/35 96/227/34
f 37/231/36 36/235/37 164/236/37 163/232/36
f 36/235/37 35/237/38 165/238/38 164/236/37
f 164/236/37 165/238/38 100/239/38 99/240/37
f 163/232/36 164/236/37 99/240/37 98/233/36
f 35/237/38 34/241/39 166/242/39 165/238/38
f 34/241/39 33/243/40 167/244/40 166/242/39
f 166/242/39 167/244/40 102/245/40 101/246/39
f 165/238/38 166/242/39 101/246/39 100/239/38
f 33/243/40 32/247/41 168/248/41 167/244/40
f 32/247/41 31/249/42 169/250/42 168/248/41
f 168/248/41 169/250/42 104/251/42 103/252/41
f 167/244/40 168/248/41 103/252/41 102/245/40
f 31/249/42 30/253/43 170/254/43 169/250/42
f 30/253/43 29/255/44 171/256/44 170/254/43
f 170/254/43 171/256/44 106/257/44 105/258/43
f 169/250/42 170/254/43 105/258/43 104/251/42
f 29/255/44 28/259/45 172/260/45 171/256/44
f 28/259/45 27/261/46 173/262/46 172/260/45
f 172/260/45 173/262/46 108/263/46 107/264/45
f 171/256/44 172/260/45 107/264/45 106/257/44
f 27/265/46 26/266/47 174/267/47 173/268/46
f 26/266/47 25/269/48 175/270/48 174/267/47
f 174/267/47 175/270/48 110/271/48 109/272/47
f 173/268/46 174/267/47 109/272/47 108/273/46
f 25/269/48 24/274/49 176/275/49 175/270/48
f 24/274/49 23/276/50 177/277/50 176/275/49
f 176/275/49 177/277/50 112/278/50 111/279/49
f 175/270/48 176/275/49 111/279/49 110/271/48
f 23/276/50 22/280/51 178/281/51 177/277/50
f 22/280/51 21/282/52 179/283/52 178/281/51
f 178/281/51 179/283/52 114/284/52 113/285/51
f 177/277/50 178/281/51 113/285/51 112/278/50
f 21/282/52 20/286/53 180/287/53 179/283/52
f 20/286/53 19/288/54 181/289/54 180/287/53
f 180/287/53 181/289/54 116/290/54 115/291/53
f 179/283/52 180/287/53 115/291/53 114/284/52
f 19/288/54 18/292/55 182/293/55 181/289/54
f 18/292/55 17/294/56 183/295/56 182/293/55
f 182/293/55 183/295/56 118/296/57 117/297/55
f 181/289/54 182/293/55 117/297/55 116/290/54
f 17/294/56 16/298/58 184/299/58 183/295/56
f 16/298/58 15/300/59 185/301/59 184/299/58
f 184/299/58 185/301/59 120/302/59 119/303/58
f 183/295/56 184/299/58 119/303/58 118/296/57
f 15/300/59 14/304/60 186/305/60 185/301/59
f 14/304/60 13/306/61 187/307/61 186/305/60
f 186/305/60 187/307/61 122/308/61 121/309/60
f 185/301/59 186/305/60 121/309/60 120/302/59
f 13/310/61 12/311/62 188/312/62 187/313/61
f 12/311/62 11/314/63 189/315/63 188/312/62
f 188/312/62 189/315/63 124/316/63 123/317/62
f 187/313/61 188/312/62 123/317/62 122/318/61
f 11/314/63 10/319/64 190/320/64 189/315/63
f 10/319/64 9/321/65 191/322/66 190/320/64
f 190/320/64 191/322/66 126/323/66 125/324/64
f 189/315/63 190/320/64 125/324/64 124/316/63
f 9/321/65 8/325/67 192/326/67 191/322/66
f 8/325/67 7/327/68 193/328/68 192/326/67
f 192/326/67 193/328/68 128/329/68 127/330/67
f 191/322/66 192/326/67 127/330/67 126/323/66
f 7/327/68 6/331/69 194/332/69 193/328/68
f 6/331/69 5/131/3 132/134/3 194/332/69
f 194/332/69 132/134/3 130/139/3 129/333/69
f 193/328/68 194/332/69 129/333/69 128/329/68
g Plane.002

# Vertex Positions:
v 11.24945 30.59226 -9.67962
v 8.14275 34.03886 -8.60689
v 11.50488 35.80181 -4.53433
v 14.61162 32.35557 -5.60755
v -2.62125 11.64727 9.9743
v -5.72795 15.09386 11.04703
v -2.36583 16.85682 15.11959
v 0.74114 13.41057 14.04664

# Vertex Texture Coordinates:
vt 0.15491 0.10796 
vt 0.28988 0.18165 
vt 0.2746 0.24459 
vt 0.13963 0.1709 
vt 0.86535 0.82965 
vt 0.79462 0.91102 
vt 0.05767 0.50869 
vt 0.1284 0.42731 
vt 0.12436 0.23384 
vt 0.99216 0.70762 
vt 0.97689 0.77056 
vt 0.10909 0.29678 
vt 0.10909 0.29678 
vt 0.84604 0.69912 
vt 0.86535 0.82965 
vt 0.1284 0.42731 
vt 0.40957 0.31827 
vt 0.2746 0.24459 
vt 0.28988 0.18165 
vt 0.42485 0.25533 
vt 0.13963 0.1709 
vt 1.00744 0.64468 
vt 0.99216 0.70762 
vt 0.12436 0.23384 

# Vertex Surface Normals:
vn 0.00132 0.00177 -0.00186
vn -0.00174 -0.00091 -0.00211
vn -0.00189 0.00208 0.00066
vn 0.00174 0.00091 0.00211
vn -0.00132 -0.00177 0.00186
vn 0.00189 -0.00208 -0.00066

# Faces:
usemtl Metal
f 195/334/70 196/335/70 197/336/70 198/337/70
f 199/338/71 200/339/71 196/340/71 195/341/71
f 196/342/72 200/343/72 201/344/72 197/345/72
f 202/346/73 198/347/73 197/348/73 201/349/73
f 200/350/74 199/351/74 202/352/74 201/353/74
f 199/354/75 195/355/75 198/356/75 202/357/75
g Plane.003

# Vertex Positions:
v 16.73763 46.9531 -17.27971
v -22.99072 51.76122 13.03833
v -19.53396 53.5789 17.27971
v 20.19439 48.77078 -13.03833
v 0.0005 25.38133 5.60413
v 3.457 27.19867 9.84573

# Vertex Texture Coordinates:
vt 0.0374 0.20853 
vt 0.98054 0.20853 
vt 0.98054 0.30299 
vt 0.0374 0.30299 
vt 0.5062 1.01566 
vt 0.03265 0.32066 
vt 0.97579 0.32066 
vt 0.0374 0.11408 
vt 0.70943 0.11408 
vt 0.70943 0.20853 
vt 0.0374 0.20853 
vt 0.50699 0.99799 
vt 0.70664 0.11408 
vt 0.0374 0.11408 
vt 0.0374 0.01962 
vt 0.70664 0.01962 

# Vertex Surface Normals:
vn -0.00035 0.00273 -0.00089
vn -0.00173 -0.00091 -0.00212
vn -0.00138 -0.00172 0.00186
vn 0.00173 0.00091 0.00212
vn 0.00187 -0.00211 -0.00062

# Faces:
usemtl Metal
f 203/358/76 204/359/76 205/360/76 206/361/76
f 207/362/77 204/363/77 203/364/77
f 204/365/78 207/366/78 208/367/78 205/368/78
f 208/369/79 206/361/79 205/360/79
f 207/370/80 203/371/80 206/372/80 208/373/80
